<svg width="610" height="86" viewBox="0 0 610 86" fill="none" xmlns="http://www.w3.org/2000/svg">
<g filter="url(#filter0_i_1073_234)">
<path d="M57.1936 26.2097L42.6396 37.4001L28.0856 26.2097L20 20V65.2792H28.0856V36.4299L36.0418 42.5102L42.6396 47.6203L49.2374 42.5102L57.1936 36.4299V65.2792H65.2792V20L57.1936 26.2097Z" fill="#ACF4FE"/>
<path d="M122.836 33.5191C122.836 26.145 116.885 20.1941 109.511 20.1941H77.6213V28.2796H109.511C112.422 28.2796 114.815 30.6729 114.815 33.5838C114.815 36.4299 112.551 38.7585 109.769 38.8879C109.705 38.8879 109.64 38.8879 109.575 38.8879H85.7068V46.9734H109.575C109.64 46.9734 109.705 46.9734 109.769 46.9734C112.551 47.1028 114.75 49.4315 114.75 52.2776C114.75 55.1884 112.357 57.5817 109.446 57.5817H77.5566V65.6673H109.446C116.82 65.6673 122.771 59.7163 122.771 52.3423C122.771 48.7199 121.348 45.421 119.019 43.0277C121.348 40.6344 122.771 37.3355 122.771 33.7131L122.836 33.5191Z" fill="#ACF4FE"/>
<path d="M135.113 20.0647V28.1503H153.678V65.3439H161.763V28.1503H180.328V20.0647H135.113Z" fill="#ACF4FE"/>
<path d="M219.369 57.1936L200.416 20L181.464 57.1936L177.324 65.2792H186.38L190.52 57.1936L200.416 37.7882L210.313 57.1936L214.453 65.2792H223.509L219.369 57.1936Z" fill="#ACF4FE"/>
<path d="M307.77 26.2097L293.216 37.4001L278.662 26.2097L270.577 20V65.2792H278.662V36.4299L286.618 42.5102L293.216 47.6203L299.814 42.5102L307.77 36.4299V65.2792H315.856V20L307.77 26.2097Z" fill="#ACF4FE"/>
<path d="M349.156 20C336.672 20 326.516 30.1555 326.516 42.6396C326.516 55.1237 336.672 65.2792 349.156 65.2792C361.64 65.2792 371.795 55.1237 371.795 42.6396C371.795 30.1555 361.64 20 349.156 20ZM349.156 57.1936C341.135 57.1936 334.602 50.6605 334.602 42.6396C334.602 34.6187 341.135 28.0856 349.156 28.0856C357.177 28.0856 363.71 34.6187 363.71 42.6396C363.71 50.6605 357.177 57.1936 349.156 57.1936Z" fill="#ACF4FE"/>
<path d="M405.108 28.0856H427.747V20H405.108C392.624 20 382.468 30.1555 382.468 42.6396C382.468 55.1237 392.624 65.2792 405.108 65.2792H427.747V40.4403H405.108V48.5259H419.662V57.1936H405.108C397.087 57.1936 390.554 50.6605 390.554 42.6396C390.554 34.6187 397.087 28.0856 405.108 28.0856Z" fill="#ACF4FE"/>
<path d="M477.219 20V42.6396C477.219 50.6605 470.685 57.1936 462.665 57.1936C454.644 57.1936 448.111 50.6605 448.111 42.6396V20H440.025V42.6396C440.025 55.1237 450.18 65.2792 462.665 65.2792C475.149 65.2792 485.304 55.1237 485.304 42.6396V20H477.219Z" fill="#ACF4FE"/>
<path d="M511.165 57.1936C508.319 56.8055 506.055 54.5415 505.667 51.6954V20.0647H497.582V50.9192C497.582 53.1832 498.099 55.3178 499.069 57.2583C500.428 60.1044 502.756 62.433 505.602 63.8561C507.543 64.8264 509.677 65.3439 511.941 65.3439H534.904V57.2583L511.165 57.1936Z" fill="#ACF4FE"/>
<path d="M590 32.4841V32.2254C590 25.4982 584.502 20 577.775 20H559.404C552.677 20 547.243 25.4982 547.243 32.2254V32.4841C547.243 35.0715 548.02 37.4648 549.378 39.4054C549.831 40.1169 550.348 40.7637 550.931 41.3459C553.13 43.4805 556.105 44.7742 559.404 44.7742H575.705C579.133 44.7742 581.979 47.5556 581.979 50.9839C581.979 54.4122 579.133 57.1936 575.705 57.1936H561.539C558.111 57.1936 555.329 54.4122 555.329 50.9839H547.243C547.243 58.8754 553.647 65.2792 561.539 65.2792H575.705C583.596 65.2792 590 58.8754 590 50.9839C590 47.5556 588.771 44.3861 586.766 41.9281C586.572 41.734 586.442 41.5399 586.248 41.3459C583.661 38.4998 579.909 36.6886 575.705 36.6886H559.404C557.14 36.6886 555.264 34.8128 555.264 32.5488V32.2901C555.264 30.0261 557.14 28.1503 559.404 28.1503H577.775C580.039 28.1503 581.914 30.0261 581.914 32.2901V32.5488L590 32.4841Z" fill="#ACF4FE"/>
</g>
<g filter="url(#filter1_f_1073_234)">
<path d="M57.1936 26.2097L42.6396 37.4001L28.0856 26.2097L20 20V65.2792H28.0856V36.4299L36.0418 42.5102L42.6396 47.6203L49.2374 42.5102L57.1936 36.4299V65.2792H65.2792V20L57.1936 26.2097Z" fill="#ACF4FE"/>
<path d="M122.836 33.5191C122.836 26.145 116.885 20.1941 109.511 20.1941H77.6213V28.2796H109.511C112.422 28.2796 114.815 30.6729 114.815 33.5838C114.815 36.4299 112.551 38.7585 109.769 38.8879C109.705 38.8879 109.64 38.8879 109.575 38.8879H85.7068V46.9734H109.575C109.64 46.9734 109.705 46.9734 109.769 46.9734C112.551 47.1028 114.75 49.4315 114.75 52.2776C114.75 55.1884 112.357 57.5817 109.446 57.5817H77.5566V65.6673H109.446C116.82 65.6673 122.771 59.7163 122.771 52.3423C122.771 48.7199 121.348 45.421 119.019 43.0277C121.348 40.6344 122.771 37.3355 122.771 33.7131L122.836 33.5191Z" fill="#ACF4FE"/>
<path d="M135.113 20.0647V28.1503H153.678V65.3439H161.763V28.1503H180.328V20.0647H135.113Z" fill="#ACF4FE"/>
<path d="M219.369 57.1936L200.416 20L181.464 57.1936L177.324 65.2792H186.38L190.52 57.1936L200.416 37.7882L210.313 57.1936L214.453 65.2792H223.509L219.369 57.1936Z" fill="#ACF4FE"/>
<path d="M307.77 26.2097L293.216 37.4001L278.662 26.2097L270.577 20V65.2792H278.662V36.4299L286.618 42.5102L293.216 47.6203L299.814 42.5102L307.77 36.4299V65.2792H315.856V20L307.77 26.2097Z" fill="#ACF4FE"/>
<path d="M349.156 20C336.672 20 326.516 30.1555 326.516 42.6396C326.516 55.1237 336.672 65.2792 349.156 65.2792C361.64 65.2792 371.795 55.1237 371.795 42.6396C371.795 30.1555 361.64 20 349.156 20ZM349.156 57.1936C341.135 57.1936 334.602 50.6605 334.602 42.6396C334.602 34.6187 341.135 28.0856 349.156 28.0856C357.177 28.0856 363.71 34.6187 363.71 42.6396C363.71 50.6605 357.177 57.1936 349.156 57.1936Z" fill="#ACF4FE"/>
<path d="M405.108 28.0856H427.747V20H405.108C392.624 20 382.468 30.1555 382.468 42.6396C382.468 55.1237 392.624 65.2792 405.108 65.2792H427.747V40.4403H405.108V48.5259H419.662V57.1936H405.108C397.087 57.1936 390.554 50.6605 390.554 42.6396C390.554 34.6187 397.087 28.0856 405.108 28.0856Z" fill="#ACF4FE"/>
<path d="M477.219 20V42.6396C477.219 50.6605 470.685 57.1936 462.665 57.1936C454.644 57.1936 448.111 50.6605 448.111 42.6396V20H440.025V42.6396C440.025 55.1237 450.18 65.2792 462.665 65.2792C475.149 65.2792 485.304 55.1237 485.304 42.6396V20H477.219Z" fill="#ACF4FE"/>
<path d="M511.165 57.1936C508.319 56.8055 506.055 54.5415 505.667 51.6954V20.0647H497.582V50.9192C497.582 53.1832 498.099 55.3178 499.069 57.2583C500.428 60.1044 502.756 62.433 505.602 63.8561C507.543 64.8264 509.677 65.3439 511.941 65.3439H534.904V57.2583L511.165 57.1936Z" fill="#ACF4FE"/>
<path d="M590 32.4841V32.2254C590 25.4982 584.502 20 577.775 20H559.404C552.677 20 547.243 25.4982 547.243 32.2254V32.4841C547.243 35.0715 548.02 37.4648 549.378 39.4054C549.831 40.1169 550.348 40.7637 550.931 41.3459C553.13 43.4805 556.105 44.7742 559.404 44.7742H575.705C579.133 44.7742 581.979 47.5556 581.979 50.9839C581.979 54.4122 579.133 57.1936 575.705 57.1936H561.539C558.111 57.1936 555.329 54.4122 555.329 50.9839H547.243C547.243 58.8754 553.647 65.2792 561.539 65.2792H575.705C583.596 65.2792 590 58.8754 590 50.9839C590 47.5556 588.771 44.3861 586.766 41.9281C586.572 41.734 586.442 41.5399 586.248 41.3459C583.661 38.4998 579.909 36.6886 575.705 36.6886H559.404C557.14 36.6886 555.264 34.8128 555.264 32.5488V32.2901C555.264 30.0261 557.14 28.1503 559.404 28.1503H577.775C580.039 28.1503 581.914 30.0261 581.914 32.2901V32.5488L590 32.4841Z" fill="#ACF4FE"/>
</g>
<defs>
<filter id="filter0_i_1073_234" x="20" y="20" width="570" height="49.6673" filterUnits="userSpaceOnUse" color-interpolation-filters="sRGB">
<feFlood flood-opacity="0" result="BackgroundImageFix"/>
<feBlend mode="normal" in="SourceGraphic" in2="BackgroundImageFix" result="shape"/>
<feColorMatrix in="SourceAlpha" type="matrix" values="0 0 0 0 0 0 0 0 0 0 0 0 0 0 0 0 0 0 127 0" result="hardAlpha"/>
<feOffset dy="4"/>
<feGaussianBlur stdDeviation="4"/>
<feComposite in2="hardAlpha" operator="arithmetic" k2="-1" k3="1"/>
<feColorMatrix type="matrix" values="0 0 0 0 0.278431 0 0 0 0 0.796078 0 0 0 0 1 0 0 0 1 0"/>
<feBlend mode="normal" in2="shape" result="effect1_innerShadow_1073_234"/>
</filter>
<filter id="filter1_f_1073_234" x="0" y="0" width="610" height="85.6673" filterUnits="userSpaceOnUse" color-interpolation-filters="sRGB">
<feFlood flood-opacity="0" result="BackgroundImageFix"/>
<feBlend mode="normal" in="SourceGraphic" in2="BackgroundImageFix" result="shape"/>
<feGaussianBlur stdDeviation="10" result="effect1_foregroundBlur_1073_234"/>
</filter>
</defs>
</svg>
